<?xml version="1.0" encoding="UTF-8"?>
<svg width="24" height="24" viewBox="0 0 24 24" fill="none" xmlns="http://www.w3.org/2000/svg">
    <path d="M8 3H5C4.46957 3 3.96086 3.21071 3.58579 3.58579C3.21071 3.96086 3 4.46957 3 5V19C3 19.5304 3.21071 20.0391 3.58579 20.4142C3.96086 20.7893 4.46957 21 5 21H19C19.5304 21 20.0391 20.7893 20.4142 20.4142C20.7893 20.0391 21 19.5304 21 19V5C21 4.46957 20.7893 3.96086 20.4142 3.58579C20.0391 3.21071 19.5304 3 19 3H16M8 3V5C8 5.53043 8.21071 6.03914 8.58579 6.41421C8.96086 6.78929 9.46957 7 10 7H14C14.5304 7 15.0391 6.78929 15.4142 6.41421C15.7893 6.03914 16 5.53043 16 5V3M8 3H16" stroke="white" stroke-width="2" stroke-linecap="round" stroke-linejoin="round"/>
</svg> 